<svg id="Layer_3" data-name="Layer 3" xmlns="http://www.w3.org/2000/svg" viewBox="0 0 622.03 1031.3"><defs><style>.cls-1,.cls-5,.cls-6,.cls-7,.cls-8,.cls-9{fill:none;}.cls-1{stroke:#e0e0e0;}.cls-1,.cls-2,.cls-5,.cls-6,.cls-7,.cls-8,.cls-9{stroke-miterlimit:10;}.cls-11,.cls-2{fill:#fff;}.cls-2,.cls-5,.cls-8,.cls-9{stroke:#1d1d1b;}.cls-3{font-size:26px;}.cls-12,.cls-3{font-family:TimesNewRomanPSMT, Times New Roman;}.cls-4{letter-spacing:-0.07em;}.cls-6{stroke:#fff;stroke-width:2px;}.cls-7{stroke:#1f00ff;}.cls-8{stroke-dasharray:5.75 9.59;}.cls-9{stroke-dasharray:6.39 10.66;}.cls-10{fill:#1f00ff;}.cls-12{font-size:44px;}.cls-13{letter-spacing:-0.1em;}</style></defs><title>2</title><rect class="cls-1" x="214.94" y="258.01" width="5.52" height="20.72" transform="translate(-50.66 486.07) rotate(-90)"/><polyline class="cls-1" points="202.38 271.13 202.38 265.61 181.66 265.61 181.66 271.13"/><rect class="cls-2" x="24.92" y="623.52" width="283.78" height="122.5" transform="translate(-517.96 851.58) rotate(-90)"/><rect class="cls-2" x="77.13" y="812.64" width="150.78" height="93.92" transform="translate(-707.08 1012.13) rotate(-90)"/><rect class="cls-2" x="52.55" y="837.23" width="150.78" height="44.76" transform="translate(-731.67 987.55) rotate(-90)"/><line class="cls-2" x1="167.45" y1="271.13" x2="228.06" y2="271.13"/><rect class="cls-2" x="247.65" y="778.49" width="108.34" height="204.67" transform="translate(-579.01 1182.64) rotate(-90)"/><rect class="cls-2" x="444.47" y="786.5" width="108.17" height="188.81" transform="translate(-382.35 1379.46) rotate(-90)"/><polygon class="cls-2" points="105.56 488.63 106.09 488.63 176.31 488.63 181.56 488.63 201.94 488.63 228.06 488.63 228.06 487.86 228.06 457.71 199.48 457.71 199.48 370.56 228.06 370.56 228.06 340.03 228.06 340 228.06 339.63 201.94 339.63 181.7 339.63 181.7 326.18 181.56 326.18 105.56 326.18 105.56 488.63"/><rect class="cls-1" x="214.94" y="252.49" width="5.52" height="20.72" transform="translate(-45.15 480.55) rotate(-90)"/><rect class="cls-1" x="214.94" y="246.97" width="5.52" height="20.72" transform="translate(-39.63 475.03) rotate(-90)"/><rect class="cls-1" x="214.94" y="241.45" width="5.52" height="20.72" transform="translate(-34.11 469.51) rotate(-90)"/><rect class="cls-1" x="214.94" y="235.93" width="5.52" height="20.72" transform="translate(-28.59 463.99) rotate(-90)"/><rect class="cls-1" x="214.94" y="230.41" width="5.52" height="20.72" transform="translate(-23.07 458.47) rotate(-90)"/><rect class="cls-1" x="189.26" y="252.49" width="5.52" height="20.72" transform="translate(-70.83 454.87) rotate(-90)"/><rect class="cls-1" x="189.26" y="246.97" width="5.52" height="20.72" transform="translate(-65.31 449.35) rotate(-90)"/><rect class="cls-1" x="189.26" y="241.45" width="5.52" height="20.72" transform="translate(-59.79 443.83) rotate(-90)"/><rect class="cls-1" x="189.26" y="235.93" width="5.52" height="20.72" transform="translate(-54.27 438.31) rotate(-90)"/><rect class="cls-1" x="189.26" y="230.41" width="5.52" height="20.72" transform="translate(-48.75 432.79) rotate(-90)"/><rect class="cls-2" x="139.68" y="454.5" width="54.26" height="122.5" transform="translate(-348.94 682.56) rotate(-90)"/><rect class="cls-1" x="193.87" y="203.82" width="21.98" height="46.4" transform="translate(-22.16 431.88) rotate(-90)"/><text class="cls-3" transform="translate(135.39 893.82) rotate(-90)"><tspan class="cls-4">T</tspan><tspan x="14.07" y="0">oilets</tspan></text><text class="cls-3" transform="translate(89.4 225.75) rotate(-90)">Shop</text><line class="cls-5" x1="228.06" y1="213.14" x2="228.06" y2="352.19"/><polygon class="cls-2" points="60.8 162.67 105.56 162.67 105.56 271.13 106.06 271.13 115.63 271.13 181.7 271.13 181.7 215.93 210.97 215.93 210.97 216.03 228.06 216.03 228.06 44.44 227.5 44.44 210.97 44.44 60.8 44.44 60.8 162.67"/><line class="cls-6" x1="105.56" y1="264.69" x2="105.56" y2="242.97"/><line class="cls-7" x1="105.56" y1="264.69" x2="115.11" y2="245.18"/><line class="cls-6" x1="105.56" y1="370.63" x2="105.56" y2="348.91"/><line class="cls-7" x1="105.56" y1="370.63" x2="115.11" y2="351.12"/><line class="cls-6" x1="105.56" y1="448.01" x2="105.56" y2="469.73"/><line class="cls-7" x1="105.56" y1="448.01" x2="96.01" y2="467.52"/><polyline class="cls-5" points="175.85 257.48 174.63 254.74 171.89 255.95"/><line class="cls-8" x1="163.12" y1="259.84" x2="69.28" y2="301.4"/><polyline class="cls-5" points="64.9 303.34 62.16 304.56 63.37 307.3"/><line class="cls-9" x1="67.69" y1="317.04" x2="86.24" y2="358.94"/><polyline class="cls-5" points="88.4 363.81 89.61 366.55 92.36 365.34"/><line class="cls-8" x1="101.13" y1="361.45" x2="194.97" y2="319.89"/><polyline class="cls-5" points="199.35 317.95 202.09 316.73 200.88 313.99"/><line class="cls-9" x1="196.56" y1="304.25" x2="178.01" y2="262.35"/><polyline class="cls-5" points="60.8 149.33 60.8 973.56 592.96 973.56"/><line class="cls-1" x1="105.56" y1="613.19" x2="105.56" y2="591.47"/><line class="cls-1" x1="105.56" y1="613.19" x2="115.11" y2="593.68"/><line class="cls-1" x1="105.56" y1="711.23" x2="105.56" y2="732.94"/><line class="cls-1" x1="105.56" y1="711.23" x2="96.01" y2="730.73"/><line class="cls-1" x1="250.88" y1="934.99" x2="229.17" y2="934.99"/><line class="cls-1" x1="250.88" y1="934.99" x2="231.38" y2="925.45"/><line class="cls-1" x1="345.24" y1="934.99" x2="366.96" y2="934.99"/><line class="cls-1" x1="345.24" y1="934.99" x2="364.75" y2="944.54"/><line class="cls-1" x1="451.38" y1="934.99" x2="429.66" y2="934.99"/><line class="cls-1" x1="451.38" y1="934.99" x2="431.87" y2="925.45"/><circle class="cls-10" cx="80.77" cy="254.64" r="11.04"/><circle class="cls-11" cx="80.77" cy="254.64" r="4.3"/><path class="cls-10" d="M80.86,280.88c.75-8.45,3.91-14.51,7.66-18.38H73c3.75,3.87,6.91,9.94,7.66,18.38Z"/><circle class="cls-10" cx="304.19" cy="55.47" r="11.04"/><circle class="cls-11" cx="304.19" cy="55.47" r="4.3"/><path class="cls-10" d="M304.28,81.71c.75-8.45,3.91-14.51,7.66-18.38h-15.5c3.75,3.87,6.91,9.94,7.66,18.38Z"/><line class="cls-1" x1="545.73" y1="934.99" x2="567.45" y2="934.99"/><line class="cls-1" x1="545.73" y1="934.99" x2="565.24" y2="944.54"/><text class="cls-12" transform="translate(151.63 156.66)">1</text><text class="cls-12" transform="translate(151.63 427.53)">2</text><text class="cls-12" transform="translate(151.63 683.71)">3</text><text class="cls-12" transform="translate(288.88 899.21)">4</text><text class="cls-12" transform="translate(496.46 899.21)">5</text><text class="cls-12" transform="translate(338.65 77.24)"><tspan class="cls-13">Y</tspan><tspan x="27.37" y="0">ou are here</tspan></text></svg>