<svg id="Layer_3" data-name="Layer 3" xmlns="http://www.w3.org/2000/svg" viewBox="0 0 534.36 931.24"><defs><style>.cls-1{fill:#fff;}.cls-1,.cls-4,.cls-5,.cls-6,.cls-7{stroke:#1d1d1b;}.cls-1,.cls-3,.cls-4,.cls-5,.cls-6,.cls-7{stroke-miterlimit:10;stroke-width:2px;}.cls-2{fill:#e1e1e1;}.cls-3,.cls-5,.cls-6,.cls-7{fill:none;}.cls-3{stroke:#dfdfdf;}.cls-4{fill:#dfdfdf;}.cls-6{stroke-dasharray:5.75 9.59;}.cls-7{stroke-dasharray:6.39 10.66;}.cls-8{fill:#1f00ff;}</style></defs><title>floor-plan-r2</title><polyline class="cls-1" points="373.81 891.7 344.38 891.7 344.38 783.52 533.19 783.52 533.19 891.7 510.36 891.7"/><polygon class="cls-2" points="142.17 296.33 121.93 296.33 121.93 282.89 121.79 282.89 120.99 282.89 142.32 273.44 114.86 211.44 2.39 261.26 29.84 323.25 45.79 316.19 45.79 445.33 46.32 445.33 116.54 445.33 121.79 445.33 142.17 445.33 168.29 445.33 168.29 444.56 168.29 414.42 139.71 414.42 139.71 327.26 168.29 327.26 168.29 296.73 168.29 296.71 168.29 296.33 142.17 296.33"/><rect class="cls-3" x="155.17" y="214.71" width="5.52" height="20.72" transform="translate(-67.14 383) rotate(-90)"/><polyline class="cls-3" points="142.61 227.83 142.61 222.31 121.89 222.31 121.89 227.83"/><polyline class="cls-1" points="45.79 698.3 45.79 699.29 45.79 783.36 168.29 783.36 168.29 499.58 45.79 499.58 45.79 546.17"/><line class="cls-1" x1="45.79" y1="567.89" x2="45.79" y2="676.58"/><rect class="cls-1" x="17.36" y="769.35" width="150.78" height="93.92" transform="translate(-723.56 909.06) rotate(-90)"/><rect class="cls-1" x="-7.22" y="793.93" width="150.78" height="44.76" transform="translate(-748.14 884.48) rotate(-90)"/><line class="cls-1" x1="141.62" y1="227.83" x2="168.29" y2="227.83"/><polyline class="cls-1" points="168.95 891.7 139.71 891.7 139.71 783.36 344.38 783.36 344.38 891.7 305.91 891.7"/><line class="cls-1" x1="488.64" y1="891.7" x2="395.53" y2="891.7"/><polyline class="cls-4" points="45.79 426.44 45.79 445.33 46.32 445.33 116.54 445.33 121.79 445.33 142.17 445.33 168.29 445.33 168.29 444.56 168.29 414.42 139.71 414.42 139.71 327.26 168.29 327.26 168.29 296.73 168.29 296.71 168.29 296.33 142.17 296.33 121.93 296.33 121.93 282.89 121.79 282.89 45.79 282.89 45.79 305.61"/><line class="cls-4" x1="45.79" y1="327.33" x2="45.79" y2="404.72"/><rect class="cls-3" x="155.17" y="209.19" width="5.52" height="20.72" transform="translate(-61.62 377.48) rotate(-90)"/><rect class="cls-3" x="155.17" y="203.67" width="5.52" height="20.72" transform="translate(-56.1 371.96) rotate(-90)"/><rect class="cls-3" x="155.17" y="198.15" width="5.52" height="20.72" transform="translate(-50.58 366.44) rotate(-90)"/><rect class="cls-3" x="155.17" y="192.63" width="5.52" height="20.72" transform="translate(-45.06 360.92) rotate(-90)"/><rect class="cls-3" x="155.17" y="187.11" width="5.52" height="20.72" transform="translate(-39.54 355.41) rotate(-90)"/><rect class="cls-3" x="129.49" y="209.19" width="5.52" height="20.72" transform="translate(-87.3 351.8) rotate(-90)"/><rect class="cls-3" x="129.49" y="203.67" width="5.52" height="20.72" transform="translate(-81.78 346.28) rotate(-90)"/><rect class="cls-3" x="129.49" y="198.15" width="5.52" height="20.72" transform="translate(-76.26 340.76) rotate(-90)"/><rect class="cls-3" x="129.49" y="192.63" width="5.52" height="20.72" transform="translate(-70.74 335.24) rotate(-90)"/><rect class="cls-3" x="129.49" y="187.11" width="5.52" height="20.72" transform="translate(-65.22 329.72) rotate(-90)"/><rect class="cls-1" x="79.91" y="411.21" width="54.26" height="122.5" transform="translate(-365.42 579.5) rotate(-90)"/><rect class="cls-3" x="134.1" y="160.52" width="21.98" height="46.4" transform="translate(-38.63 328.81) rotate(-90)"/><path d="M58.4,835.48l4-.19v.48a4.86,4.86,0,0,0-1.52.38,2.55,2.55,0,0,0-1.08,1,3.65,3.65,0,0,0-.35,1.72v2.42H72.64a3.52,3.52,0,0,0,2-.34,1.91,1.91,0,0,0,.53-1.49v-.6h.47v7.3h-.47v-.61a1.75,1.75,0,0,0-.66-1.55,3.85,3.85,0,0,0-1.85-.28H59.48v2.07a5.78,5.78,0,0,0,.18,1.71,2.35,2.35,0,0,0,.93,1.13,3.75,3.75,0,0,0,1.85.56v.48l-4-.2Z"/><path d="M63.65,830a5.15,5.15,0,0,1,2-4.24,6.16,6.16,0,0,1,3.94-1.36,7.42,7.42,0,0,1,3.16.75,5.32,5.32,0,0,1,3.22,5,4.93,4.93,0,0,1-2.09,4.18,6.48,6.48,0,0,1-4,1.31,7,7,0,0,1-3.18-.79,5.41,5.41,0,0,1-2.34-2.09A5.36,5.36,0,0,1,63.65,830Zm.83.39a2.65,2.65,0,0,0,.4,1.35,2.81,2.81,0,0,0,1.4,1.1,6.75,6.75,0,0,0,2.58.42,9,9,0,0,0,4.38-1,3,3,0,0,0,1.84-2.66,2.48,2.48,0,0,0-1-2,5.77,5.77,0,0,0-3.49-.8,8,8,0,0,0-4.87,1.33A2.75,2.75,0,0,0,64.47,830.35Z"/><path d="M57.57,819.69a1.28,1.28,0,0,1,1.28-1.28,1.26,1.26,0,0,1,.91.38,1.22,1.22,0,0,1,.38.91,1.29,1.29,0,1,1-2.58,0Zm6.08-1.05H73a4.29,4.29,0,0,0,1.45-.16A1.11,1.11,0,0,0,75,818a2.5,2.5,0,0,0,.18-1.14h.46v5.65h-.46a2.62,2.62,0,0,0-.17-1.14,1.12,1.12,0,0,0-.55-.46,4.08,4.08,0,0,0-1.46-.17H68.51a15.86,15.86,0,0,0-2.45.11,1,1,0,0,0-.56.28.79.79,0,0,0-.16.52,2.54,2.54,0,0,0,.19.86l-.46.18-1.42-3.5Z"/><path d="M57.57,811.42H73a4.19,4.19,0,0,0,1.45-.16,1.13,1.13,0,0,0,.54-.49,2.82,2.82,0,0,0,.18-1.23h.46v5.7h-.46a2.46,2.46,0,0,0-.17-1.09,1.1,1.1,0,0,0-.55-.46,4.24,4.24,0,0,0-1.46-.17H62.43a18.23,18.23,0,0,0-2.42.09,1.06,1.06,0,0,0-.62.29.76.76,0,0,0-.17.5,2.39,2.39,0,0,0,.2.84l-.44.22L57.57,812Z"/><path d="M68.37,806.24A6,6,0,0,0,72.43,805a3.83,3.83,0,0,0,1.47-3,3.23,3.23,0,0,0-.63-2,4.64,4.64,0,0,0-2.15-1.42l.25-.39a6.05,6.05,0,0,1,3.17,1.55A4.14,4.14,0,0,1,76,803a4.69,4.69,0,0,1-1.63,3.59A6.25,6.25,0,0,1,70,808a6.63,6.63,0,0,1-4.65-1.53,5,5,0,0,1-1.67-3.84,4.29,4.29,0,0,1,1.29-3.21,4.72,4.72,0,0,1,3.45-1.26Zm-.74,0v-5.38a5,5,0,0,0-1.57.27,2.52,2.52,0,0,0-1.12.95,2.38,2.38,0,0,0-.41,1.31,2.62,2.62,0,0,0,.82,1.89A3.55,3.55,0,0,0,67.63,806.24Z"/><path d="M60.17,793.28H64v-2.72h.89v2.72h7.54a2.52,2.52,0,0,0,1.52-.32,1,1,0,0,0,.39-.83,1.46,1.46,0,0,0-.26-.81,1.67,1.67,0,0,0-.77-.61v-.5a4,4,0,0,1,1.87,1.26,2.71,2.71,0,0,1,.63,1.68,2.25,2.25,0,0,1-.32,1.14,2,2,0,0,1-.93.83,4.87,4.87,0,0,1-1.86.27H64.88v1.84h-.42a4.8,4.8,0,0,0-.95-1.43,7.5,7.5,0,0,0-1.58-1.3,14.15,14.15,0,0,0-1.76-.81Z"/><path d="M63.65,781.92h4v.42a5.15,5.15,0,0,0-2.54,1.24,2.79,2.79,0,0,0-.67,1.92,2.13,2.13,0,0,0,.47,1.43,1.36,1.36,0,0,0,1,.55,1.89,1.89,0,0,0,1.22-.41,4.51,4.51,0,0,0,1.1-1.6l.9-1.85Q70.39,781,72.45,781a3.13,3.13,0,0,1,2.56,1.2,4.16,4.16,0,0,1,1,2.68,9.24,9.24,0,0,1-.38,2.44,2.5,2.5,0,0,0-.13.69.51.51,0,0,0,.33.46v.42H71.65v-.42a4.72,4.72,0,0,0,2.68-1.36,3.28,3.28,0,0,0,.9-2.25,2,2,0,0,0-.51-1.43,1.64,1.64,0,0,0-1.24-.55,2,2,0,0,0-1.47.62A10.74,10.74,0,0,0,70.49,786a7.27,7.27,0,0,1-1.65,2.41A2.86,2.86,0,0,1,67,789a3.22,3.22,0,0,1-2.4-1,3.48,3.48,0,0,1-1-2.54,6,6,0,0,1,.29-1.66,3.93,3.93,0,0,0,.19-.86.5.5,0,0,0-.09-.32,1.21,1.21,0,0,0-.39-.27Z"/><polyline class="cls-5" points="45.79 221.39 45.79 227.83 46.29 227.83 55.85 227.83 121.93 227.83 121.93 172.64 151.2 172.64 151.2 172.73 168.29 172.73 168.29 1.14 167.73 1.14 151.2 1.14 1.03 1.14 1.03 119.38 45.79 119.38 45.79 199.67"/><path d="M12,170.53h6V171a7.43,7.43,0,0,0-2.73.82,4.26,4.26,0,0,0-1.61,1.68,4.65,4.65,0,0,0-.6,2.26,3.07,3.07,0,0,0,.81,2.18,2.46,2.46,0,0,0,1.83.86,2.17,2.17,0,0,0,1.43-.55,14.05,14.05,0,0,0,2.54-3.75,25.87,25.87,0,0,1,2-3.29,4.85,4.85,0,0,1,1.63-1.36,4.31,4.31,0,0,1,2-.48,4.46,4.46,0,0,1,3.37,1.52,5.49,5.49,0,0,1,1.42,3.9,8.27,8.27,0,0,1-.11,1.41,14.61,14.61,0,0,1-.46,1.63,7.29,7.29,0,0,0-.4,1.57.66.66,0,0,0,.19.5,1.51,1.51,0,0,0,.79.27v.47h-5.9v-.47a8.34,8.34,0,0,0,2.77-.89,4.26,4.26,0,0,0,1.53-1.71,5.3,5.3,0,0,0,.61-2.52,3.58,3.58,0,0,0-.84-2.51,2.59,2.59,0,0,0-2-.92,2.69,2.69,0,0,0-1.28.35,3.82,3.82,0,0,0-1.21,1.09,31.08,31.08,0,0,0-1.62,2.7,26.23,26.23,0,0,1-2,3.14,5.32,5.32,0,0,1-1.62,1.42,4,4,0,0,1-2,.48,4.24,4.24,0,0,1-3.19-1.42A5.07,5.07,0,0,1,12,175.78a7.25,7.25,0,0,1,.67-2.91,3,3,0,0,0,.32-1,.76.76,0,0,0-.2-.54A1.58,1.58,0,0,0,12,171Z"/><path d="M11.58,163.76h8.51a9.78,9.78,0,0,1-2-2.23,3.49,3.49,0,0,1-.44-1.65,2.71,2.71,0,0,1,.55-1.7,3.22,3.22,0,0,1,1.71-1.05,12.11,12.11,0,0,1,3-.24H27a4.31,4.31,0,0,0,1.51-.18,1,1,0,0,0,.48-.43,2.43,2.43,0,0,0,.18-1.12h.46v5.71h-.46v-.27a1.9,1.9,0,0,0-.25-1.13,1.31,1.31,0,0,0-.73-.44A10.08,10.08,0,0,0,27,159H22.89a9.9,9.9,0,0,0-2.5.2,1.69,1.69,0,0,0-.9.63,1.79,1.79,0,0,0-.3,1,2.93,2.93,0,0,0,.33,1.29,6.16,6.16,0,0,0,1.33,1.61H27a4.75,4.75,0,0,0,1.49-.13,1.08,1.08,0,0,0,.49-.49,2.82,2.82,0,0,0,.2-1.25h.46v5.76h-.46a2.58,2.58,0,0,0-.24-1.22.91.91,0,0,0-.48-.41,4.39,4.39,0,0,0-1.45-.15H16.48A17.75,17.75,0,0,0,14,166a1.09,1.09,0,0,0-.62.29.79.79,0,0,0-.17.53,3.08,3.08,0,0,0,.2.86l-.44.18-1.42-3.48Z"/><path d="M17.66,148.49a5.15,5.15,0,0,1,2-4.24,6.16,6.16,0,0,1,3.94-1.36,7.42,7.42,0,0,1,3.16.75,5.32,5.32,0,0,1,3.22,5,4.93,4.93,0,0,1-2.09,4.18,6.49,6.49,0,0,1-4,1.31,7,7,0,0,1-3.18-.79,5.29,5.29,0,0,1-3.09-4.83Zm.83.39a2.65,2.65,0,0,0,.4,1.35,2.81,2.81,0,0,0,1.4,1.1,6.75,6.75,0,0,0,2.58.42,9,9,0,0,0,4.38-1,3,3,0,0,0,1.84-2.66,2.48,2.48,0,0,0-1-2,5.77,5.77,0,0,0-3.49-.8,8,8,0,0,0-4.87,1.33A2.75,2.75,0,0,0,18.48,148.88Z"/><path d="M19.16,142l-1.45-3.58V138h2.72a6.6,6.6,0,0,1-2.15-1.81,3.35,3.35,0,0,1-.62-1.91A3.68,3.68,0,0,1,19,131.31a6.48,6.48,0,0,1,4.37-1.43,7.27,7.27,0,0,1,5,1.73A4.57,4.57,0,0,1,30,135.18a4.48,4.48,0,0,1-.27,1.63A3.8,3.8,0,0,1,29,138H32.5A4.7,4.7,0,0,0,34,137.8a1.08,1.08,0,0,0,.51-.51,3.12,3.12,0,0,0,.19-1.31h.47v6.09h-.47v-.32a2.32,2.32,0,0,0-.27-1.19.92.92,0,0,0-.45-.37,5.45,5.45,0,0,0-1.58-.13h-11a6,6,0,0,0-1.43.1.86.86,0,0,0-.46.32,1,1,0,0,0-.15.6,2.28,2.28,0,0,0,.18.77Zm2-4.06h4.34a9.31,9.31,0,0,0,1.85-.11,2.37,2.37,0,0,0,1.29-.87,2.69,2.69,0,0,0,.56-1.75,2.5,2.5,0,0,0-1-2.06,5.73,5.73,0,0,0-3.64-1,6.35,6.35,0,0,0-4.1,1.17,2.43,2.43,0,0,0-1,1.93,2.63,2.63,0,0,0,.3,1.21A7.07,7.07,0,0,0,21.18,138Z"/><line class="cls-5" x1="168.29" y1="169.84" x2="168.29" y2="308.9"/><line class="cls-5" x1="45.79" y1="221.39" x2="55.33" y2="201.88"/><line class="cls-4" x1="45.79" y1="327.33" x2="55.33" y2="307.82"/><line class="cls-4" x1="45.79" y1="404.72" x2="36.24" y2="424.22"/><line class="cls-1" x1="45.79" y1="676.58" x2="36.24" y2="696.09"/><line class="cls-1" x1="190.67" y1="891.7" x2="171.16" y2="882.15"/><line class="cls-1" x1="284.19" y1="891.7" x2="303.7" y2="901.24"/><line class="cls-1" x1="488.64" y1="891.7" x2="508.15" y2="901.24"/><line class="cls-1" x1="395.52" y1="891.7" x2="376.02" y2="882.15"/><line class="cls-1" x1="45.79" y1="567.89" x2="55.33" y2="548.39"/><polyline class="cls-5" points="116.08 214.19 114.86 211.44 112.12 212.66"/><line class="cls-6" x1="103.35" y1="216.54" x2="9.51" y2="258.11"/><polyline class="cls-5" points="5.13 260.05 2.39 261.26 3.6 264"/><line class="cls-7" x1="7.92" y1="273.75" x2="26.47" y2="315.64"/><polyline class="cls-5" points="28.63 320.51 29.84 323.25 32.59 322.04"/><line class="cls-6" x1="41.36" y1="318.16" x2="135.19" y2="276.59"/><polyline class="cls-5" points="139.58 274.65 142.32 273.44 141.11 270.69"/><line class="cls-7" x1="136.79" y1="260.95" x2="118.24" y2="219.06"/><polyline class="cls-5" points="1.03 106.04 1.03 930.27 534.36 930.27"/><path d="M97,87.08l7.09-3.46h.71v24.6a13,13,0,0,0,.2,3.05,1.59,1.59,0,0,0,.85.92,7.21,7.21,0,0,0,2.62.37v.79h-11v-.79a7.38,7.38,0,0,0,2.66-.35,1.76,1.76,0,0,0,.84-.84,11.39,11.39,0,0,0,.24-3.15V92.5a23.2,23.2,0,0,0-.21-4.08,1.73,1.73,0,0,0-.55-1,1.47,1.47,0,0,0-1-.32,5.73,5.73,0,0,0-2.21.67Z"/><path class="cls-8" d="M112,378.63l-2,5.61H92.81v-.79a77.62,77.62,0,0,0,10.68-11.3q3.09-4.38,3.09-8a6.34,6.34,0,0,0-1.7-4.55,5.41,5.41,0,0,0-4.06-1.78A6.34,6.34,0,0,0,97,359a7.29,7.29,0,0,0-2.52,3.68h-.79a10,10,0,0,1,2.76-6.1A7.72,7.72,0,0,1,102,354.5a8.21,8.21,0,0,1,5.92,2.28,7.21,7.21,0,0,1,2.37,5.37,10.4,10.4,0,0,1-1,4.43,29.21,29.21,0,0,1-5.16,7.37q-5.35,5.84-6.68,7H105a20.82,20.82,0,0,0,3.25-.17,4.25,4.25,0,0,0,1.69-.7,4.58,4.58,0,0,0,1.31-1.49Z"/><path d="M94.1,616.83a11.83,11.83,0,0,1,3.15-4.54,7.11,7.11,0,0,1,4.74-1.6,6.55,6.55,0,0,1,5.37,2.28,5.57,5.57,0,0,1,1.42,3.63q0,3.18-4,6.57a8.66,8.66,0,0,1,4.06,3,7.79,7.79,0,0,1,1.38,4.6,9.67,9.67,0,0,1-2.41,6.55q-3.14,3.61-9.09,3.61a7.65,7.65,0,0,1-4-.73,2,2,0,0,1-1.06-1.57,1.46,1.46,0,0,1,.5-1.1,1.71,1.71,0,0,1,1.21-.47,3.73,3.73,0,0,1,1.1.17,13,13,0,0,1,1.65.78,10.48,10.48,0,0,0,1.78.81,5.9,5.9,0,0,0,1.7.24,5.11,5.11,0,0,0,3.81-1.7,5.62,5.62,0,0,0,1.62-4,7.75,7.75,0,0,0-.75-3.31,5.9,5.9,0,0,0-1.22-1.83,8.93,8.93,0,0,0-2.54-1.56,8.2,8.2,0,0,0-3.29-.7h-.69v-.64a8.86,8.86,0,0,0,3.41-1.22,6.47,6.47,0,0,0,2.48-2.43,6.4,6.4,0,0,0,.77-3.12,4.8,4.8,0,0,0-1.39-3.58,4.72,4.72,0,0,0-3.45-1.36q-3.33,0-5.56,3.57Z"/><path d="M249.59,845.17v3.05h-3.91v7.69h-3.54v-7.69H229.8v-2.75l13.51-19.29h2.36v19Zm-7.46,0V830.71L231.9,845.17Z"/><path d="M442.79,826.78l-1.68,3.65h-8.77l-1.91,3.91a15.35,15.35,0,0,1,9,4.23,9.51,9.51,0,0,1,2.86,6.88,9.74,9.74,0,0,1-.93,4.25A11.48,11.48,0,0,1,439,853a12,12,0,0,1-3.16,2.21,11.63,11.63,0,0,1-5.07,1.18,6.44,6.44,0,0,1-3.81-.89,2.49,2.49,0,0,1-1.19-2,1.42,1.42,0,0,1,.49-1.06,1.75,1.75,0,0,1,1.25-.46,2.57,2.57,0,0,1,1,.17,9.08,9.08,0,0,1,1.43.88,5.68,5.68,0,0,0,3.27,1.12,6.06,6.06,0,0,0,4.42-1.9,6.3,6.3,0,0,0,1.9-4.63,8.12,8.12,0,0,0-1.7-4.93,10.9,10.9,0,0,0-4.68-3.53,19,19,0,0,0-6.38-1.12l5.59-11.32Z"/><line class="cls-1" x1="284.19" y1="891.7" x2="190.67" y2="891.7"/></svg>