<svg id="Layer_3" data-name="Layer 3" xmlns="http://www.w3.org/2000/svg" viewBox="0 0 534.36 931.24"><defs><style>.cls-1,.cls-8{fill:#fff;}.cls-1,.cls-3,.cls-4,.cls-5,.cls-6{stroke:#1d1d1b;}.cls-1,.cls-2,.cls-3,.cls-4,.cls-5,.cls-6{stroke-miterlimit:10;stroke-width:2px;}.cls-2,.cls-3,.cls-5,.cls-6{fill:none;}.cls-2{stroke:#dfdfdf;}.cls-4{fill:#dfdfdf;}.cls-5{stroke-dasharray:5.75 9.59;}.cls-6{stroke-dasharray:6.39 10.66;}.cls-7{fill:#1f00ff;}</style></defs><title>floor-plan</title><polyline class="cls-1" points="373.29 891.7 343.87 891.7 343.87 783.52 532.68 783.52 532.68 891.7 509.85 891.7"/><rect class="cls-2" x="154.66" y="214.71" width="5.52" height="20.72" transform="translate(-67.65 382.49) rotate(-90)"/><polyline class="cls-2" points="142.09 227.83 142.09 222.31 121.38 222.31 121.38 227.83"/><polyline class="cls-1" points="45.27 698.3 45.27 699.29 45.27 783.36 167.78 783.36 167.78 499.58 45.27 499.58 45.27 546.17"/><line class="cls-1" x1="45.28" y1="567.89" x2="45.28" y2="676.58"/><rect class="cls-1" x="16.85" y="769.35" width="150.78" height="93.92" transform="translate(-724.07 908.55) rotate(-90)"/><rect class="cls-1" x="-7.73" y="793.93" width="150.78" height="44.76" transform="translate(-748.66 883.97) rotate(-90)"/><line class="cls-1" x1="141.1" y1="227.83" x2="167.78" y2="227.83"/><polyline class="cls-1" points="168.43 891.7 139.2 891.7 139.2 783.36 343.87 783.36 343.87 891.7 305.39 891.7"/><line class="cls-1" x1="488.12" y1="891.7" x2="395.01" y2="891.7"/><polyline class="cls-3" points="45.27 426.44 45.27 445.33 45.81 445.33 116.03 445.33 121.27 445.33 141.65 445.33 167.78 445.33 167.78 444.56 167.78 414.42 139.2 414.42 139.2 327.26 167.78 327.26 167.78 296.73 167.78 296.71 167.78 296.33 141.65 296.33 121.42 296.33 121.42 282.89 121.27 282.89 45.27 282.89 45.27 305.61"/><line class="cls-4" x1="45.28" y1="327.33" x2="45.28" y2="404.72"/><rect class="cls-2" x="154.66" y="209.19" width="5.52" height="20.72" transform="translate(-62.13 376.97) rotate(-90)"/><rect class="cls-2" x="154.66" y="203.67" width="5.52" height="20.72" transform="translate(-56.61 371.45) rotate(-90)"/><rect class="cls-2" x="154.66" y="198.15" width="5.52" height="20.72" transform="translate(-51.1 365.93) rotate(-90)"/><rect class="cls-2" x="154.66" y="192.63" width="5.52" height="20.72" transform="translate(-45.58 360.41) rotate(-90)"/><rect class="cls-2" x="154.66" y="187.11" width="5.52" height="20.72" transform="translate(-40.06 354.89) rotate(-90)"/><rect class="cls-2" x="128.98" y="209.19" width="5.52" height="20.72" transform="translate(-87.82 351.29) rotate(-90)"/><rect class="cls-2" x="128.98" y="203.67" width="5.52" height="20.72" transform="translate(-82.3 345.77) rotate(-90)"/><rect class="cls-2" x="128.98" y="198.15" width="5.52" height="20.72" transform="translate(-76.78 340.25) rotate(-90)"/><rect class="cls-2" x="128.98" y="192.63" width="5.52" height="20.72" transform="translate(-71.26 334.73) rotate(-90)"/><rect class="cls-2" x="128.98" y="187.11" width="5.52" height="20.72" transform="translate(-65.74 329.21) rotate(-90)"/><rect class="cls-1" x="79.4" y="411.21" width="54.26" height="122.5" transform="translate(-365.93 578.98) rotate(-90)"/><rect class="cls-2" x="133.58" y="160.52" width="21.98" height="46.4" transform="translate(-39.15 328.3) rotate(-90)"/><path d="M57.89,835.48l4-.19v.48a4.86,4.86,0,0,0-1.52.38,2.55,2.55,0,0,0-1.08,1,3.65,3.65,0,0,0-.35,1.72v2.42H72.12a3.52,3.52,0,0,0,2-.34,1.91,1.91,0,0,0,.53-1.49v-.6h.47v7.3h-.47v-.61a1.75,1.75,0,0,0-.66-1.55,3.85,3.85,0,0,0-1.85-.28H59v2.07a5.78,5.78,0,0,0,.18,1.71,2.35,2.35,0,0,0,.93,1.13,3.75,3.75,0,0,0,1.85.56v.48l-4-.2Z"/><path d="M63.13,830a5.15,5.15,0,0,1,2-4.24,6.16,6.16,0,0,1,3.94-1.36,7.42,7.42,0,0,1,3.16.75,5.32,5.32,0,0,1,3.22,5,4.93,4.93,0,0,1-2.09,4.18,6.48,6.48,0,0,1-4,1.31,7,7,0,0,1-3.18-.79,5.41,5.41,0,0,1-2.34-2.09A5.36,5.36,0,0,1,63.13,830Zm.83.39a2.65,2.65,0,0,0,.4,1.35,2.81,2.81,0,0,0,1.4,1.1,6.75,6.75,0,0,0,2.58.42,9,9,0,0,0,4.38-1,3,3,0,0,0,1.84-2.66,2.48,2.48,0,0,0-1-2,5.77,5.77,0,0,0-3.49-.8,8,8,0,0,0-4.87,1.33A2.75,2.75,0,0,0,64,830.35Z"/><path d="M57.05,819.69a1.28,1.28,0,0,1,1.28-1.28,1.26,1.26,0,0,1,.91.38,1.22,1.22,0,0,1,.38.91,1.29,1.29,0,1,1-2.58,0Zm6.08-1.05h9.34a4.29,4.29,0,0,0,1.45-.16,1.11,1.11,0,0,0,.54-.47,2.5,2.5,0,0,0,.18-1.14h.46v5.65h-.46a2.62,2.62,0,0,0-.17-1.14,1.12,1.12,0,0,0-.55-.46,4.08,4.08,0,0,0-1.46-.17H68a15.86,15.86,0,0,0-2.45.11,1,1,0,0,0-.56.28.79.79,0,0,0-.16.52,2.54,2.54,0,0,0,.19.86l-.46.18-1.42-3.5Z"/><path d="M57.05,811.42H72.48a4.19,4.19,0,0,0,1.45-.16,1.13,1.13,0,0,0,.54-.49,2.82,2.82,0,0,0,.18-1.23h.46v5.7h-.46a2.46,2.46,0,0,0-.17-1.09,1.1,1.1,0,0,0-.55-.46,4.24,4.24,0,0,0-1.46-.17H61.91a18.23,18.23,0,0,0-2.42.09,1.06,1.06,0,0,0-.62.29.76.76,0,0,0-.17.5,2.39,2.39,0,0,0,.2.84l-.44.22L57.05,812Z"/><path d="M67.86,806.24A6,6,0,0,0,71.92,805a3.83,3.83,0,0,0,1.47-3,3.23,3.23,0,0,0-.63-2,4.64,4.64,0,0,0-2.15-1.42l.25-.39A6.05,6.05,0,0,1,74,799.76,4.14,4.14,0,0,1,75.46,803a4.69,4.69,0,0,1-1.63,3.59A6.25,6.25,0,0,1,69.44,808a6.63,6.63,0,0,1-4.65-1.53,5,5,0,0,1-1.67-3.84,4.29,4.29,0,0,1,1.29-3.21,4.72,4.72,0,0,1,3.45-1.26Zm-.74,0v-5.38a5,5,0,0,0-1.57.27,2.52,2.52,0,0,0-1.12.95,2.38,2.38,0,0,0-.41,1.31,2.62,2.62,0,0,0,.82,1.89A3.55,3.55,0,0,0,67.12,806.24Z"/><path d="M59.65,793.28h3.82v-2.72h.89v2.72h7.54a2.52,2.52,0,0,0,1.52-.32,1,1,0,0,0,.39-.83,1.46,1.46,0,0,0-.26-.81,1.67,1.67,0,0,0-.77-.61v-.5a4,4,0,0,1,1.87,1.26,2.71,2.71,0,0,1,.63,1.68,2.25,2.25,0,0,1-.32,1.14,2,2,0,0,1-.93.83,4.87,4.87,0,0,1-1.86.27H64.36v1.84h-.42a4.8,4.8,0,0,0-.95-1.43,7.5,7.5,0,0,0-1.58-1.3,14.15,14.15,0,0,0-1.76-.81Z"/><path d="M63.13,781.92h4v.42a5.15,5.15,0,0,0-2.54,1.24,2.79,2.79,0,0,0-.67,1.92,2.13,2.13,0,0,0,.47,1.43,1.36,1.36,0,0,0,1,.55,1.89,1.89,0,0,0,1.22-.41,4.51,4.51,0,0,0,1.1-1.6l.9-1.85Q69.87,781,71.93,781a3.13,3.13,0,0,1,2.56,1.2,4.16,4.16,0,0,1,1,2.68,9.24,9.24,0,0,1-.38,2.44,2.5,2.5,0,0,0-.13.69.51.51,0,0,0,.33.46v.42H71.13v-.42a4.72,4.72,0,0,0,2.68-1.36,3.28,3.28,0,0,0,.9-2.25,2,2,0,0,0-.51-1.43,1.64,1.64,0,0,0-1.24-.55,2,2,0,0,0-1.47.62A10.74,10.74,0,0,0,70,786a7.27,7.27,0,0,1-1.65,2.41,2.86,2.86,0,0,1-1.83.57,3.22,3.22,0,0,1-2.4-1,3.48,3.48,0,0,1-1-2.54,6,6,0,0,1,.29-1.66,3.93,3.93,0,0,0,.19-.86.5.5,0,0,0-.09-.32,1.21,1.21,0,0,0-.39-.27Z"/><polyline class="cls-1" points="45.27 221.39 45.27 227.83 45.78 227.83 55.34 227.83 121.42 227.83 121.42 172.64 150.69 172.64 150.69 172.73 167.78 172.73 167.78 1.14 167.22 1.14 150.69 1.14 0.52 1.14 0.52 119.38 45.27 119.38 45.27 199.67"/><path d="M11.51,170.53h6V171a7.43,7.43,0,0,0-2.73.82,4.26,4.26,0,0,0-1.61,1.68,4.65,4.65,0,0,0-.6,2.26,3.07,3.07,0,0,0,.81,2.18,2.46,2.46,0,0,0,1.83.86,2.17,2.17,0,0,0,1.43-.55,14.05,14.05,0,0,0,2.54-3.75,25.87,25.87,0,0,1,2-3.29,4.85,4.85,0,0,1,1.63-1.36,4.31,4.31,0,0,1,2-.48,4.46,4.46,0,0,1,3.37,1.52,5.49,5.49,0,0,1,1.42,3.9,8.27,8.27,0,0,1-.11,1.41,14.61,14.61,0,0,1-.46,1.63,7.29,7.29,0,0,0-.4,1.57.66.66,0,0,0,.19.5,1.51,1.51,0,0,0,.79.27v.47h-5.9v-.47a8.34,8.34,0,0,0,2.77-.89,4.26,4.26,0,0,0,1.53-1.71,5.3,5.3,0,0,0,.61-2.52,3.58,3.58,0,0,0-.84-2.51,2.59,2.59,0,0,0-2-.92,2.69,2.69,0,0,0-1.28.35,3.82,3.82,0,0,0-1.21,1.09,31.08,31.08,0,0,0-1.62,2.7,26.23,26.23,0,0,1-2,3.14A5.32,5.32,0,0,1,18,180.34a4,4,0,0,1-2,.48,4.24,4.24,0,0,1-3.19-1.42,5.07,5.07,0,0,1-1.34-3.62,7.25,7.25,0,0,1,.67-2.91,3,3,0,0,0,.32-1,.76.76,0,0,0-.2-.54,1.58,1.58,0,0,0-.79-.34Z"/><path d="M11.06,163.76h8.51a9.78,9.78,0,0,1-2-2.23,3.49,3.49,0,0,1-.44-1.65,2.71,2.71,0,0,1,.55-1.7,3.22,3.22,0,0,1,1.71-1.05,12.11,12.11,0,0,1,3-.24h4.11A4.31,4.31,0,0,0,28,156.7a1,1,0,0,0,.48-.43,2.43,2.43,0,0,0,.18-1.12h.46v5.71h-.46v-.27a1.9,1.9,0,0,0-.25-1.13,1.31,1.31,0,0,0-.73-.44,10.08,10.08,0,0,0-1.19,0H22.37a9.9,9.9,0,0,0-2.5.2,1.69,1.69,0,0,0-.9.63,1.79,1.79,0,0,0-.3,1,2.93,2.93,0,0,0,.33,1.29,6.16,6.16,0,0,0,1.33,1.61h6.14a4.75,4.75,0,0,0,1.49-.13,1.08,1.08,0,0,0,.49-.49,2.82,2.82,0,0,0,.2-1.25h.46v5.76h-.46a2.58,2.58,0,0,0-.24-1.22.91.91,0,0,0-.48-.41,4.39,4.39,0,0,0-1.45-.15H16a17.75,17.75,0,0,0-2.45.09,1.09,1.09,0,0,0-.62.29.79.79,0,0,0-.17.53,3.08,3.08,0,0,0,.2.86l-.44.18-1.42-3.48Z"/><path d="M17.14,148.49a5.15,5.15,0,0,1,2-4.24,6.16,6.16,0,0,1,3.94-1.36,7.42,7.42,0,0,1,3.16.75,5.32,5.32,0,0,1,3.22,5,4.93,4.93,0,0,1-2.09,4.18,6.49,6.49,0,0,1-4,1.31,7,7,0,0,1-3.18-.79,5.29,5.29,0,0,1-3.09-4.83Zm.83.39a2.65,2.65,0,0,0,.4,1.35,2.81,2.81,0,0,0,1.4,1.1,6.75,6.75,0,0,0,2.58.42,9,9,0,0,0,4.38-1,3,3,0,0,0,1.84-2.66,2.48,2.48,0,0,0-1-2,5.77,5.77,0,0,0-3.49-.8,8,8,0,0,0-4.87,1.33A2.75,2.75,0,0,0,18,148.88Z"/><path d="M18.64,142l-1.45-3.58V138h2.72a6.6,6.6,0,0,1-2.15-1.81,3.35,3.35,0,0,1-.62-1.91,3.68,3.68,0,0,1,1.37-2.92,6.48,6.48,0,0,1,4.37-1.43,7.27,7.27,0,0,1,5,1.73,4.57,4.57,0,0,1,1.61,3.58,4.48,4.48,0,0,1-.27,1.63,3.8,3.8,0,0,1-.76,1.14H32a4.7,4.7,0,0,0,1.52-.15,1.08,1.08,0,0,0,.51-.51,3.12,3.12,0,0,0,.19-1.31h.47v6.09h-.47v-.32a2.32,2.32,0,0,0-.27-1.19.92.92,0,0,0-.45-.37,5.45,5.45,0,0,0-1.58-.13h-11a6,6,0,0,0-1.43.1.86.86,0,0,0-.46.32,1,1,0,0,0-.15.6,2.28,2.28,0,0,0,.18.77Zm2-4.06H25a9.31,9.31,0,0,0,1.85-.11,2.37,2.37,0,0,0,1.29-.87,2.69,2.69,0,0,0,.56-1.75,2.5,2.5,0,0,0-1-2.06,5.73,5.73,0,0,0-3.64-1A6.35,6.35,0,0,0,20,133.3a2.43,2.43,0,0,0-1,1.93,2.63,2.63,0,0,0,.3,1.21A7.07,7.07,0,0,0,20.66,138Z"/><line class="cls-3" x1="167.78" y1="169.84" x2="167.78" y2="308.9"/><line class="cls-1" x1="45.28" y1="221.39" x2="54.82" y2="201.88"/><line class="cls-1" x1="45.28" y1="327.33" x2="54.82" y2="307.82"/><line class="cls-1" x1="45.28" y1="404.72" x2="35.73" y2="424.22"/><line class="cls-1" x1="45.28" y1="676.58" x2="35.73" y2="696.09"/><line class="cls-1" x1="190.15" y1="891.7" x2="170.65" y2="882.15"/><line class="cls-1" x1="283.67" y1="891.7" x2="303.18" y2="901.24"/><line class="cls-1" x1="488.13" y1="891.7" x2="507.64" y2="901.24"/><line class="cls-1" x1="395.01" y1="891.7" x2="375.5" y2="882.15"/><line class="cls-1" x1="45.28" y1="567.89" x2="54.82" y2="548.39"/><polyline class="cls-3" points="115.56 214.19 114.35 211.44 111.61 212.66"/><line class="cls-5" x1="102.84" y1="216.54" x2="9" y2="258.11"/><polyline class="cls-3" points="4.61 260.05 1.87 261.26 3.09 264"/><line class="cls-6" x1="7.4" y1="273.75" x2="25.96" y2="315.64"/><polyline class="cls-3" points="28.11 320.51 29.33 323.25 32.07 322.04"/><line class="cls-5" x1="40.84" y1="318.16" x2="134.68" y2="276.59"/><polyline class="cls-3" points="139.06 274.65 141.81 273.44 140.59 270.69"/><line class="cls-6" x1="136.28" y1="260.95" x2="117.72" y2="219.06"/><polyline class="cls-3" points="0.52 106.04 0.52 930.27 533.84 930.27"/><circle class="cls-7" cx="23.49" cy="210.06" r="14.35"/><circle class="cls-8" cx="23.49" cy="210.06" r="5.58"/><path class="cls-7" d="M23.6,244.18c1-11,5.09-18.86,10-23.9H13.41c4.87,5,9,12.92,10,23.9Z"/><path d="M96.51,87.08l7.09-3.46h.71v24.6a13,13,0,0,0,.2,3.05,1.59,1.59,0,0,0,.85.92,7.21,7.21,0,0,0,2.62.37v.79H97v-.79a7.38,7.38,0,0,0,2.66-.35,1.76,1.76,0,0,0,.84-.84,11.39,11.39,0,0,0,.24-3.15V92.5a23.2,23.2,0,0,0-.21-4.08,1.73,1.73,0,0,0-.55-1,1.47,1.47,0,0,0-1-.32,5.73,5.73,0,0,0-2.21.67Z"/><path d="M111.52,378.63l-2,5.61H92.3v-.79A77.62,77.62,0,0,0,103,372.14q3.09-4.38,3.09-8a6.34,6.34,0,0,0-1.7-4.55,5.41,5.41,0,0,0-4.06-1.78A6.34,6.34,0,0,0,96.45,359a7.29,7.29,0,0,0-2.52,3.68h-.79a10,10,0,0,1,2.76-6.1,7.72,7.72,0,0,1,5.55-2.13,8.21,8.21,0,0,1,5.92,2.28,7.21,7.21,0,0,1,2.37,5.37,10.4,10.4,0,0,1-1,4.43,29.21,29.21,0,0,1-5.16,7.37q-5.35,5.84-6.68,7h7.61a20.82,20.82,0,0,0,3.25-.17,4.25,4.25,0,0,0,1.69-.7,4.58,4.58,0,0,0,1.31-1.49Z"/><path d="M93.58,616.83a11.83,11.83,0,0,1,3.15-4.54,7.11,7.11,0,0,1,4.74-1.6,6.55,6.55,0,0,1,5.37,2.28,5.57,5.57,0,0,1,1.42,3.63q0,3.18-4,6.57a8.66,8.66,0,0,1,4.06,3,7.79,7.79,0,0,1,1.38,4.6,9.67,9.67,0,0,1-2.41,6.55q-3.14,3.61-9.09,3.61a7.65,7.65,0,0,1-4-.73,2,2,0,0,1-1.06-1.57,1.46,1.46,0,0,1,.5-1.1,1.71,1.71,0,0,1,1.21-.47,3.73,3.73,0,0,1,1.1.17,13,13,0,0,1,1.65.78,10.48,10.48,0,0,0,1.78.81,5.9,5.9,0,0,0,1.7.24,5.11,5.11,0,0,0,3.81-1.7,5.62,5.62,0,0,0,1.62-4,7.75,7.75,0,0,0-.75-3.31,5.9,5.9,0,0,0-1.22-1.83,8.93,8.93,0,0,0-2.54-1.56,8.2,8.2,0,0,0-3.29-.7H98v-.64a8.86,8.86,0,0,0,3.41-1.22,6.47,6.47,0,0,0,2.48-2.43,6.4,6.4,0,0,0,.77-3.12,4.8,4.8,0,0,0-1.39-3.58,4.72,4.72,0,0,0-3.45-1.36q-3.33,0-5.56,3.57Z"/><path d="M249.07,845.17v3.05h-3.91v7.69h-3.54v-7.69H229.28v-2.75l13.51-19.29h2.36v19Zm-7.46,0V830.71l-10.23,14.46Z"/><path d="M455.27,826.78l-1.68,3.65h-8.77l-1.91,3.91a15.35,15.35,0,0,1,9,4.23,9.51,9.51,0,0,1,2.86,6.88,9.74,9.74,0,0,1-.93,4.25,11.48,11.48,0,0,1-2.35,3.33,12,12,0,0,1-3.16,2.21,11.63,11.63,0,0,1-5.07,1.18,6.44,6.44,0,0,1-3.81-.89,2.49,2.49,0,0,1-1.19-2,1.42,1.42,0,0,1,.49-1.06A1.75,1.75,0,0,1,440,852a2.57,2.57,0,0,1,1,.17,9.08,9.08,0,0,1,1.43.88,5.68,5.68,0,0,0,3.27,1.12,6.06,6.06,0,0,0,4.42-1.9,6.3,6.3,0,0,0,1.9-4.63,8.12,8.12,0,0,0-1.7-4.93,10.9,10.9,0,0,0-4.68-3.53,19,19,0,0,0-6.38-1.12l5.59-11.32Z"/><line class="cls-1" x1="283.68" y1="891.7" x2="190.15" y2="891.7"/></svg>