<svg id="Layer_3" data-name="Layer 3" xmlns="http://www.w3.org/2000/svg" viewBox="0 0 622.03 1031.3"><defs><style>.cls-1,.cls-5,.cls-6,.cls-7,.cls-8,.cls-9{fill:none}.cls-1{stroke:#e0e0e0}.cls-1,.cls-2,.cls-5,.cls-6,.cls-7,.cls-8,.cls-9{stroke-miterlimit:10}.cls-11,.cls-2{fill:#fff}.cls-2,.cls-5,.cls-8,.cls-9{stroke:#1d1d1b}.cls-3{font-size:26px}.cls-12,.cls-3{font-family:TimesNewRomanPSMT,Times New Roman}.cls-4{letter-spacing:-.07em}.cls-6{stroke:#fff;stroke-width:2px}.cls-7{stroke:#1f00ff}.cls-8{stroke-dasharray:5.75 9.59}.cls-9{stroke-dasharray:6.39 10.66}.cls-10{fill:#1f00ff}.cls-12{font-size:44px}.cls-13{letter-spacing:-.1em}</style></defs><title>2</title><path class="cls-1" transform="rotate(-90 217.705 268.365)" d="M214.94 258.01h5.52v20.72h-5.52z"/><path class="cls-1" d="M202.38 271.13v-5.52h-20.72v5.52"/><path class="cls-2" transform="rotate(-90 166.81 684.77)" d="M24.92 623.52H308.7v122.5H24.92z"/><path class="cls-2" transform="rotate(-90 152.525 859.605)" d="M77.13 812.64h150.78v93.92H77.13z"/><path class="cls-2" transform="rotate(-90 127.94 859.61)" d="M52.55 837.23h150.78v44.76H52.55z"/><path class="cls-2" d="M167.45 271.13h60.61"/><path class="cls-2" transform="rotate(-90 301.815 880.825)" d="M247.65 778.49h108.34v204.67H247.65z"/><path class="cls-2" transform="rotate(-90 498.555 880.905)" d="M444.47 786.5h108.17v188.81H444.47z"/><path class="cls-2" d="M105.56 488.63h122.5V457.71h-28.58v-87.15h28.58V339.63H181.7v-13.45h-76.14v162.45z"/><path class="cls-1" transform="rotate(-90 217.7 262.85)" d="M214.94 252.49h5.52v20.72h-5.52z"/><path class="cls-1" transform="rotate(-90 217.7 257.33)" d="M214.94 246.97h5.52v20.72h-5.52z"/><path class="cls-1" transform="rotate(-90 217.7 251.81)" d="M214.94 241.45h5.52v20.72h-5.52z"/><path class="cls-1" transform="rotate(-90 217.7 246.29)" d="M214.94 235.93h5.52v20.72h-5.52z"/><path class="cls-1" transform="rotate(-90 217.7 240.77)" d="M214.94 230.41h5.52v20.72h-5.52z"/><path class="cls-1" transform="rotate(-90 192.02 262.85)" d="M189.26 252.49h5.52v20.72h-5.52z"/><path class="cls-1" transform="rotate(-90 192.02 257.33)" d="M189.26 246.97h5.52v20.72h-5.52z"/><path class="cls-1" transform="rotate(-90 192.02 251.81)" d="M189.26 241.45h5.52v20.72h-5.52z"/><path class="cls-1" transform="rotate(-90 192.02 246.29)" d="M189.26 235.93h5.52v20.72h-5.52z"/><path class="cls-1" transform="rotate(-90 192.02 240.77)" d="M189.26 230.41h5.52v20.72h-5.52z"/><path class="cls-2" transform="rotate(-90 166.81 515.75)" d="M139.68 454.5h54.26V577h-54.26z"/><path class="cls-1" transform="rotate(-90 204.86 227.02)" d="M193.87 203.82h21.98v46.4h-21.98z"/><text class="cls-3" transform="rotate(-90 514.605 379.215)"><tspan class="cls-4">T</tspan><tspan x="14.07" y="0">oilets</tspan></text><text class="cls-3" transform="rotate(-90 157.575 68.175)">Shop</text><path class="cls-5" d="M228.06 213.14v139.05"/><path class="cls-2" d="M60.8 162.67h44.76v108.46H181.7v-55.2h29.27v.1h17.09V44.44H60.8v118.23z"/><path class="cls-6" d="M105.56 264.69v-21.72"/><path class="cls-7" d="M105.56 264.69l9.55-19.51"/><path class="cls-6" d="M105.56 370.63v-21.72"/><path class="cls-7" d="M105.56 370.63l9.55-19.51"/><path class="cls-6" d="M105.56 448.01v21.72"/><path class="cls-7" d="M105.56 448.01l-9.55 19.51"/><path class="cls-5" d="M175.85 257.48l-1.22-2.74-2.74 1.21"/><path class="cls-8" d="M163.12 259.84L69.28 301.4"/><path class="cls-5" d="M64.9 303.34l-2.74 1.22 1.21 2.74"/><path class="cls-9" d="M67.69 317.04l18.55 41.9"/><path class="cls-5" d="M88.4 363.81l1.21 2.74 2.75-1.21"/><path class="cls-8" d="M101.13 361.45l93.84-41.56"/><path class="cls-5" d="M199.35 317.95l2.74-1.22-1.21-2.74"/><path class="cls-9" d="M196.56 304.25l-18.55-41.9"/><path class="cls-5" d="M60.8 149.33v824.23h532.16"/><path class="cls-1" d="M105.56 613.19v-21.72M105.56 613.19l9.55-19.51M105.56 711.23v21.71M105.56 711.23l-9.55 19.5M250.88 934.99h-21.71M250.88 934.99l-19.5-9.54M345.24 934.99h21.72M345.24 934.99l19.51 9.55M451.38 934.99h-21.72M451.38 934.99l-19.51-9.54"/><circle class="cls-10" cx="80.77" cy="254.64" r="11.04"/><circle class="cls-11" cx="80.77" cy="254.64" r="4.3"/><path class="cls-10" d="M80.86 280.88c.75-8.45 3.91-14.51 7.66-18.38H73c3.75 3.87 6.91 9.94 7.66 18.38z"/><circle class="cls-10" cx="304.19" cy="55.47" r="11.04"/><circle class="cls-11" cx="304.19" cy="55.47" r="4.3"/><path class="cls-10" d="M304.28 81.71c.75-8.45 3.91-14.51 7.66-18.38h-15.5c3.75 3.87 6.91 9.94 7.66 18.38z"/><path class="cls-1" d="M545.73 934.99h21.72M545.73 934.99l19.51 9.55"/><text class="cls-12" transform="translate(151.63 156.66)">1</text><text class="cls-12" transform="translate(151.63 427.53)">2</text><text class="cls-12" transform="translate(151.63 683.71)">3</text><text class="cls-12" transform="translate(288.88 899.21)">4</text><text class="cls-12" transform="translate(496.46 899.21)">5</text><text class="cls-12" transform="translate(338.65 77.24)"><tspan class="cls-13">Y</tspan><tspan x="27.37" y="0">ou are here</tspan></text></svg>